# Blender 3.1.0
# www.blender.org
mtllib Chair.mtl
o Chair.007
v -0.295332 0.000000 0.296910
v -0.304800 0.482600 0.314038
v -0.295332 0.000000 -0.296910
v -0.304800 0.482600 -0.316308
v 0.206018 0.000000 0.220710
v 0.215486 0.482600 0.228600
v 0.206018 0.000000 -0.220710
v 0.215486 0.482600 -0.228600
v 0.156682 0.000000 -0.220710
v -0.245996 0.000000 -0.296910
v 0.147214 0.482600 -0.240108
v -0.245996 0.000000 0.296910
v 0.156682 0.000000 0.220710
v 0.147214 0.482600 0.237838
v -0.295332 0.000000 -0.255799
v -0.295332 0.000000 0.255799
v 0.206018 0.000000 0.179599
v 0.206018 0.000000 -0.179599
v 0.215486 0.482600 -0.171709
v 0.215486 0.482600 0.171709
v 0.147214 0.482600 -0.171709
v 0.147214 0.482600 0.171709
v -0.245996 0.000000 -0.255799
v -0.245996 0.000000 0.255799
v 0.156682 0.000000 -0.179599
v 0.156682 0.000000 0.179599
v 0.215486 0.421897 -0.228600
v 0.215486 0.421897 0.228600
v 0.147214 0.421897 0.237838
v -0.236528 0.421897 0.304800
v -0.236527 0.421897 -0.304800
v 0.147214 0.421897 -0.240108
v 0.215486 0.421897 -0.171709
v 0.215486 0.421897 0.171709
v -0.304800 0.421897 0.247909
v -0.304800 0.421897 -0.247909
v 0.147214 0.421897 -0.171709
v 0.147214 0.421897 0.171709
v -0.236527 0.421897 0.247909
v -0.236527 0.421897 -0.247909
v 0.190304 0.961845 -0.253693
v 0.257529 0.950195 -0.253693
v 0.262821 1.009052 0.193400
v 0.257529 0.950195 0.253693
v 0.190304 0.961845 0.253693
v 0.195807 1.023049 0.193400
v 0.262821 1.009052 -0.193400
v 0.195807 1.023049 -0.193400
v 0.162992 0.658084 0.176448
v 0.231265 0.658084 0.176448
v 0.231265 0.658084 -0.176448
v 0.162992 0.658084 -0.176448
v 0.156455 0.158169 0.215784
v -0.262216 0.142687 0.291452
v -0.262216 0.142687 -0.292676
v 0.156455 0.158169 -0.217008
v -0.262216 0.125866 -0.263540
v 0.156455 0.124787 -0.212819
v -0.262216 0.159509 -0.263540
v 0.156455 0.145106 -0.186004
v -0.262216 0.125866 0.262316
v 0.156455 0.124787 0.211595
v -0.262216 0.159509 0.262316
v 0.156455 0.145106 0.184780
v -0.057795 0.156070 -0.240390
v -0.048893 0.150930 0.240649
v -0.048893 0.140650 -0.240390
v -0.057795 0.135510 0.240649
v -0.066698 0.140650 -0.240390
v -0.066698 0.150930 0.240649
vn -0.9996 -0.0203 -0.0180
vn 0.1662 -0.0000 -0.9861
vn 1.0000 -0.0000 -0.0000
vn 0.1050 -0.0332 0.9939
vn -0.0000 -1.0000 -0.0000
vn 0.9960 -0.0896 -0.0000
vn -0.0000 1.0000 -0.0000
vn 0.1341 -0.0000 0.9910
vn 0.1688 0.0199 0.9854
vn 0.1339 -0.0372 -0.9903
vn -0.9996 -0.0203 0.0186
vn -1.0000 -0.0000 -0.0000
vn -0.9997 -0.0224 -0.0000
vn 0.9997 -0.0224 -0.0000
vn -0.0000 -0.0187 -0.9998
vn 0.0783 -0.0295 0.9965
vn -0.0000 -0.0187 0.9998
vn 0.0973 -0.0322 -0.9947
vn 0.1330 0.6964 0.7052
vn 0.1330 0.6964 -0.7052
vn 0.2045 0.9789 -0.0000
vn -0.9960 0.0896 -0.0000
vn 0.0638 -0.0488 0.9968
vn 0.0804 -0.0479 -0.9956
vn -0.0000 0.0270 -0.9996
vn -0.0000 0.0270 0.9996
vn 0.0582 -0.8646 0.4992
vn -0.1821 -0.0000 0.9833
vn 0.1809 -0.1225 -0.9758
vn -0.0750 -0.7948 -0.6022
vn 0.0582 -0.8646 -0.4992
vn -0.0750 -0.7948 0.6022
vn -0.1821 -0.0000 -0.9833
vn 0.1809 -0.1225 0.9758
vn -0.0402 0.9208 0.3880
vn 0.0582 0.8646 -0.4992
vn -0.0402 0.9208 -0.3880
vn 0.0582 0.8646 0.4992
vn 0.8660 0.5000 -0.0107
vn -0.0000 -0.9999 -0.0107
vn -0.0000 -0.0000 1.0000
vn -0.8660 0.5000 -0.0107
vn -0.0000 -0.0000 -1.0000
vn 0.8660 -0.5000 0.0107
vn -0.8660 -0.5000 0.0107
vn -0.0000 0.9999 0.0107
vt 0.353365 0.829165
vt -0.506387 0.120618
vt -0.653295 0.886559
vt 0.076701 0.903352
vt 0.251430 0.814687
vt 0.071733 0.099202
vt 0.766877 0.493297
vt -0.653456 0.885311
vt -0.506387 0.863168
vt 0.076627 0.903866
vt 0.251430 0.496841
vt 0.071732 0.887425
vt 0.313618 0.829165
vt -0.653122 0.118120
vt -0.560250 0.873997
vt 0.076967 0.887695
vt 0.076627 0.106207
vt 0.513755 0.256082
vt 0.533733 0.243347
vt 0.293744 0.804289
vt -0.560250 0.107585
vt -0.653140 0.117302
vt 0.076627 0.106207
vt 0.076967 0.093887
vt 0.253118 0.240837
vt 0.754746 0.243347
vt 0.293744 0.829165
vt -0.653517 0.191888
vt 0.776254 0.255850
vt 0.766877 0.468421
vt -0.653130 0.810726
vt 0.923959 0.000000
vt 0.076627 0.210877
vt 0.032993 0.535258
vt 0.219904 0.242557
vt 0.993433 0.782547
vt 0.353365 0.804289
vt -0.653108 0.811974
vt 0.921520 0.468612
vt 0.313618 0.804289
vt -0.653403 0.192705
vt 0.889553 0.255850
vt 0.032993 0.776257
vt 0.076627 0.210361
vt 0.480623 0.254330
vt 0.762392 0.782547
vt 0.786750 0.493297
vt -0.506387 0.811760
vt 0.804497 0.255850
vt 0.333492 0.829165
vt -0.506387 0.172027
vt 0.861337 0.255850
vt 0.333492 0.829165
vt -0.560250 0.802617
vt 0.862657 0.212773
vt 0.313618 0.804289
vt -0.560250 0.178965
vt 0.829726 0.000000
vt 0.000000 0.569746
vt 0.076967 0.192663
vt 0.727245 0.243347
vt 0.801904 0.871340
vt 0.000000 0.742911
vt 0.076967 0.788918
vt 0.561235 0.243347
vt 0.260929 0.807456
vt 0.032993 0.569747
vt 0.960369 0.782547
vt 0.834733 0.874493
vt 0.032993 0.742912
vt 0.293744 0.804289
vt 0.794359 0.782547
vt 0.786750 0.468421
vt 0.828322 0.255850
vt 0.904086 0.000000
vt 0.333492 0.804289
vt 0.901646 0.468612
vt 0.837522 0.255850
vt 0.313618 0.829165
vt 0.805902 0.000000
vt 0.796127 0.255850
vt 0.333492 0.804289
vt 0.869679 0.255850
vt 0.838842 0.212773
vt -0.003123 0.093887
vt -0.015143 0.106207
vt -0.015143 0.106207
vt -0.003123 0.887695
vt -0.015143 0.210361
vt 0.293931 0.530667
vt 0.897832 0.468421
vt -0.015143 0.799263
vt 0.479426 0.496904
vt 0.925334 0.255850
vt -0.015143 0.799197
vt 0.479426 0.804289
vt 0.927773 0.212761
vt -0.015143 0.210877
vt 0.293931 0.771667
vt 0.766877 0.468421
vt -0.003123 0.192663
vt 0.260929 0.737177
vt 0.834314 0.212775
vt -0.003123 0.788918
vt 0.260929 0.564012
vt 0.867270 0.000000
vt -0.001018 0.181894
vt 0.512428 0.525591
vt 0.865865 0.468624
vt -0.001018 0.801895
vt 0.512428 0.775602
vt 0.799941 0.468625
vt 0.293931 0.737177
vt 0.801346 0.212775
vt 0.799941 0.468421
vt 0.293931 0.564012
vt 0.865865 0.468421
vt 0.834314 0.000000
vt 0.479426 0.525591
vt 0.897832 0.255850
vt 0.832910 0.468624
vt 0.479426 0.775602
vt 0.832910 0.468625
vt 0.900272 0.212761
vt 0.801346 0.000000
vt 0.228232 0.000000
vt 1.000000 0.540454
vt 0.766877 0.479777
vt 0.768717 0.000006
vt 0.260929 0.004058
vt 0.766877 0.225415
vt 0.550749 0.509536
vt -0.008202 0.091228
vt 0.768717 0.255850
vt 0.521603 0.492847
vt 0.521603 0.479777
vt 0.801346 0.255845
vt 0.754726 0.540454
vt 0.488892 0.496904
vt 0.799432 0.225408
vt 0.783872 0.509537
vt 0.082608 0.093336
vt 0.737731 0.509536
vt 0.766877 0.030375
vt 0.082011 0.091228
vt 0.799432 0.030368
vt 0.970854 0.509536
vt -0.007354 0.093336
vt 0.900272 0.000000
vt 0.293744 0.893076
vt 0.792067 0.693900
vt 0.078665 0.004632
vt 0.867270 0.000000
vt 0.260929 0.896244
vt 0.558944 0.332077
vt -0.004248 0.005609
vt 0.867270 0.177945
vt 0.729536 0.332077
vt 0.801904 0.782547
vt 0.078057 0.005609
vt 0.900272 0.177945
vt -0.003412 0.004632
vt 0.962660 0.693900
vt 0.834733 0.785700
vt 0.927773 0.212680
vt 0.787203 0.785554
vt 0.848575 1.000000
vt 0.933527 0.000000
vt 0.788008 0.999827
vt 0.941490 0.469045
vt 0.957804 0.000000
vt 0.942328 0.255850
vt 0.925334 0.256730
vt 0.941490 0.470118
vt 0.770965 0.782547
vt 0.943948 0.002680
vt 0.941490 0.255850
vt 0.957804 0.214829
vt 0.754726 0.783413
vt 0.956205 0.258313
vt 0.770965 0.991911
vt 0.945096 0.217455
vt 0.956205 0.473128
vt 0.834733 0.997324
vt 0.787203 0.991525
vt 0.848575 0.785174
vt 0.943948 0.212680
vt 0.770965 0.990646
vt 0.801904 0.997361
vt 0.835851 0.782547
vt 0.787203 0.782547
vt 0.801904 0.782547
vt 0.259939 0.739403
vt 0.513481 0.739466
vt 0.360814 0.804289
vt 0.516786 0.496904
vt 0.766877 0.505042
vt 0.259939 0.981975
vt 0.512428 0.739466
vt 0.252322 0.739403
vt 0.360814 0.813257
vt 0.252660 0.739479
vt 0.256647 0.496841
vt 0.774327 0.509536
vt 0.252322 0.982054
vt 0.521032 0.982119
vt 0.260929 0.739403
vt 0.353365 0.808786
vt 0.521032 0.739547
vt 0.774327 0.500566
vt 0.513680 0.982041
vt 0.521032 0.739466
s 0
usemtl beams
f 36/110/1 4/12/1 3/9/1
f 32/98/2 11/33/2 8/23/2 27/86/2
f 34/104/3 20/64/3 6/16/3 28/88/3
f 30/92/4 2/4/4 1/3/4
f 26/82/5 17/53/5 5/13/5 13/40/5
f 51/158/6 8/26/6 42/128/6 47/143/6
f 22/70/7 2/5/7 14/43/7
f 16/50/5 24/76/5 12/37/5 1/1/5
f 28/87/8 6/17/8 14/44/8 29/89/8
f 29/89/9 14/44/9 2/4/9 30/92/9
f 3/8/10 4/10/10 31/95/10
f 31/95/2 4/10/2 11/33/2 32/98/2
f 3/7/5 10/30/5 23/73/5 15/47/5
f 11/34/7 4/11/7 21/67/7
f 21/67/7 4/11/7 2/5/7 22/70/7
f 19/59/7 21/67/7 22/70/7 20/63/7
f 9/27/5 7/20/5 18/56/5 25/79/5
f 27/85/3 8/24/3 19/60/3 33/101/3
f 33/101/3 19/60/3 20/64/3 34/104/3
f 1/2/11 2/6/11 35/107/11
f 35/107/12 2/6/12 4/12/12 36/110/12
f 1/2/13 35/107/13 16/51/13
f 7/21/14 27/85/14 33/101/14 18/57/14
f 3/8/15 31/95/15 10/31/15
f 5/14/16 28/87/16 29/89/16 13/41/16
f 12/38/17 30/92/17 1/3/17
f 17/54/14 34/104/14 28/88/14 5/15/14
f 9/28/18 32/98/18 27/86/18 7/22/18
f 15/48/13 36/110/13 3/9/13
f 33/102/5 34/105/5 38/116/5 37/113/5
f 35/108/5 36/111/5 40/122/5 39/119/5
f 39/119/5 40/122/5 37/113/5 38/116/5
f 32/99/5 37/113/5 40/122/5 31/96/5
f 29/90/5 30/93/5 39/119/5 38/116/5
f 26/83/13 13/42/13 29/91/13 38/117/13
f 17/55/15 26/84/15 38/118/15 34/106/15
f 25/80/17 18/58/17 33/103/17 37/114/17
f 9/29/13 25/81/13 37/115/13 32/100/13
f 39/120/14 30/94/14 12/39/14 24/77/14
f 35/109/15 39/121/15 24/78/15 16/52/15
f 40/123/17 36/112/17 15/49/17 23/74/17
f 31/97/14 40/124/14 23/75/14 10/32/14
f 43/131/19 46/140/19 45/137/19 44/134/19
f 42/129/20 41/125/20 48/146/20 47/144/20
f 47/144/21 48/146/21 46/140/21 43/131/21
f 49/151/22 14/46/22 45/138/22 46/141/22
f 14/45/23 6/18/23 44/135/23 45/139/23
f 8/25/24 11/35/24 41/126/24 42/130/24
f 11/36/22 52/163/22 48/147/22 41/127/22
f 50/153/5 49/149/5 52/161/5 51/157/5
f 6/19/6 20/65/6 50/155/6
f 20/66/25 22/71/25 49/150/25 50/154/25
f 22/72/22 14/46/22 49/151/22
f 49/152/22 46/142/22 48/148/22 52/162/22
f 19/61/6 8/26/6 51/158/6
f 11/36/22 21/68/22 52/163/22
f 21/69/26 19/62/26 51/159/26 52/164/26
f 6/19/6 50/155/6 43/132/6 44/136/6
f 51/160/6 47/145/6 43/133/6 50/156/6
f 61/184/27 62/186/27 54/167/27
f 59/179/28 57/175/28 60/181/28
f 55/170/29 56/173/29 58/177/29
f 61/184/30 64/190/30 62/186/30
f 57/176/31 55/171/31 58/178/31
f 57/176/32 58/178/32 60/182/32
f 63/188/33 64/191/33 61/185/33
f 54/168/34 62/187/34 53/165/34
f 59/180/35 60/183/35 56/174/35
f 55/172/36 59/180/36 56/174/36
f 63/189/37 53/166/37 64/192/37
f 54/169/38 53/166/38 63/189/38
f 66/198/39 67/202/39 65/193/39
f 68/203/40 69/207/40 67/200/40
f 68/204/41 66/197/41 70/210/41
f 70/211/42 65/194/42 69/209/42
f 65/195/43 67/201/43 69/208/43
f 66/198/44 68/205/44 67/202/44
f 68/206/45 70/211/45 69/209/45
f 70/212/46 66/199/46 65/196/46
