# This file uses centimeters as units for non-parametric coordinates.

mtllib TexturedCrate.mtl
g default
v -1.386342 1.517772 1.386342
v 1.386342 1.517772 1.386342
v -1.386342 4.290456 1.386342
v 1.386342 4.290456 1.386342
v -1.386342 4.290456 -1.386342
v 1.386342 4.290456 -1.386342
v -1.386342 1.517772 -1.386342
v 1.386342 1.517772 -1.386342
vt 1.008602 0.990909
vt 1.008602 0.009555
vt 1.989957 0.009555
vt 1.989957 0.990909
vt -0.991938 0.017979
vt -0.013121 0.017979
vt -0.013121 0.996796
vt -0.991938 0.996796
vt 0.008814 1.008963
vt 0.990168 1.008963
vt 0.990168 1.990317
vt 0.008814 1.990317
vt 0.018123 -0.983416
vt 0.985306 -0.983416
vt 0.985306 -0.016233
vt 0.018123 -0.016233
vt 0.005509 0.005512
vt 0.993948 0.005512
vt 0.993948 0.993952
vt 0.005509 0.993952
vt 0.009092 -1.993514
vt 0.990447 -1.993514
vt 0.990447 -1.012159
vt 0.009092 -1.012159
vn 0.000000 0.000000 1.000000
vn 0.000000 0.000000 1.000000
vn 0.000000 0.000000 1.000000
vn 0.000000 0.000000 1.000000
vn 0.000000 1.000000 0.000000
vn 0.000000 1.000000 0.000000
vn 0.000000 1.000000 0.000000
vn 0.000000 1.000000 0.000000
vn 0.000000 0.000000 -1.000000
vn 0.000000 0.000000 -1.000000
vn 0.000000 0.000000 -1.000000
vn 0.000000 0.000000 -1.000000
vn 0.000000 -1.000000 0.000000
vn 0.000000 -1.000000 0.000000
vn 0.000000 -1.000000 0.000000
vn 0.000000 -1.000000 0.000000
vn 1.000000 0.000000 0.000000
vn 1.000000 0.000000 0.000000
vn 1.000000 0.000000 0.000000
vn 1.000000 0.000000 0.000000
vn -1.000000 0.000000 0.000000
vn -1.000000 0.000000 0.000000
vn -1.000000 0.000000 0.000000
vn -1.000000 0.000000 0.000000
s off
g pCube1
usemtl lambert3SG
f 1/17/1 2/18/2 4/19/3 3/20/4
f 3/9/5 4/10/6 6/11/7 5/12/8
f 5/21/9 6/22/10 8/23/11 7/24/12
f 7/13/13 8/14/14 2/15/15 1/16/16
f 2/1/17 8/2/18 6/3/19 4/4/20
f 7/5/21 1/6/22 3/7/23 5/8/24
