# Blender 3.1.0
# www.blender.org
mtllib star.mtl
o Circle
v 0.001290 -0.000398 -0.000009
v 0.002245 -0.003324 -0.000016
v 0.005292 -0.003306 -0.000037
v 0.002801 -0.005126 -0.000020
v 0.003763 -0.008011 -0.000026
v 0.001308 -0.006249 -0.000009
v -0.001184 -0.008011 0.000008
v -0.000234 -0.005101 0.000002
v -0.002713 -0.003306 0.000019
v 0.000350 -0.003309 -0.000002
v 0.002365 1.695225 0.279037
v 0.387471 0.515366 0.276349
v 1.615998 0.522823 0.267772
v 0.611533 -0.210964 0.274785
v 0.999645 -1.374162 0.272075
v 0.009861 -0.663731 0.278985
v -0.994915 -1.374162 0.286000
v -0.611800 -0.200970 0.283325
v -1.611268 0.522824 0.290302
v -0.376494 0.521613 0.281682
vn -0.7121 -0.9620 -2.2021
vn -0.6960 -0.9482 -2.2132
vn -0.0226 1.1916 -2.2049
vn -0.0143 1.1771 -2.2127
vn 0.6481 -0.9386 -2.2318
vn 0.6793 -0.9511 -2.2172
vn -1.1403 0.3631 -2.2022
vn -1.1379 0.3666 -2.2029
vn 1.1250 0.3805 -2.2071
vn 1.1023 0.3648 -2.2212
vn -0.0175 -0.0000 -2.5063
vt 0.000000 0.000000
vt 0.000000 0.000000
vt 0.000000 0.000000
vt 0.000000 0.000000
vt 0.000000 0.000000
vt 0.000000 0.000000
vt 0.000000 0.000000
vt 0.000000 0.000000
vt 0.000000 0.000000
vt 0.000000 0.000000
vt 0.000000 0.000000
vt 0.000000 0.000000
vt 0.000000 0.000000
vt 0.000000 0.000000
vt 0.000000 0.000000
vt 0.000000 0.000000
vt 0.000000 0.000000
vt 0.000000 0.000000
vt 0.000000 0.000000
vt 0.000000 0.000000
s 0
usemtl star
f 9/9/1 8/8/1 18/18/1 19/19/1
f 6/6/2 5/5/2 15/15/2 16/16/2
f 3/3/3 2/2/3 12/12/3 13/13/3
f 10/10/4 9/9/4 19/19/4 20/20/4
f 7/7/5 6/6/5 16/16/5 17/17/5
f 4/4/6 3/3/6 13/13/6 14/14/6
f 1/1/7 10/10/7 20/20/7 11/11/7
f 8/8/8 7/7/8 17/17/8 18/18/8
f 5/5/9 4/4/9 14/14/9 15/15/9
f 2/2/10 1/1/10 11/11/10 12/12/10
f 2/2/11 3/3/11 4/4/11 5/5/11 6/6/11 7/7/11 8/8/11 9/9/11 10/10/11 1/1/11
o Circle.001
v -0.001290 -0.000257 0.566980
v -0.002277 -0.003281 0.566980
v -0.005425 -0.003262 0.566980
v -0.002851 -0.005143 0.566980
v -0.003846 -0.008124 0.566980
v -0.001309 -0.006303 0.566980
v 0.001266 -0.008124 0.566980
v 0.000284 -0.005117 0.566980
v 0.002846 -0.003262 0.566980
v -0.000319 -0.003265 0.566980
v -0.000417 1.695225 0.287933
v -0.385533 0.515366 0.287933
v -1.614090 0.522823 0.287933
v -0.609600 -0.210964 0.287933
v -0.997722 -1.374162 0.287933
v -0.007913 -0.663731 0.287933
v 0.996887 -1.374162 0.287933
v 0.613763 -0.200970 0.287933
v 1.613255 0.522824 0.287933
v 0.378451 0.521613 0.287933
vn 0.6967 -0.9621 2.2070
vn 0.6806 -0.9483 2.2180
vn 0.0072 1.1917 2.2049
vn -0.0012 1.1772 2.2127
vn -0.6637 -0.9387 2.2272
vn -0.6948 -0.9511 2.2123
vn 1.1250 0.3632 2.2101
vn 1.1226 0.3666 2.2107
vn -1.1405 0.3805 2.1992
vn -1.1178 0.3649 2.2134
vn -0.0000 -0.0000 2.5064
vt 0.000000 0.000000
vt 0.000000 0.000000
vt 0.000000 0.000000
vt 0.000000 0.000000
vt 0.000000 0.000000
vt 0.000000 0.000000
vt 0.000000 0.000000
vt 0.000000 0.000000
vt 0.000000 0.000000
vt 0.000000 0.000000
vt 0.000000 0.000000
vt 0.000000 0.000000
vt 0.000000 0.000000
vt 0.000000 0.000000
vt 0.000000 0.000000
vt 0.000000 0.000000
vt 0.000000 0.000000
vt 0.000000 0.000000
vt 0.000000 0.000000
vt 0.000000 0.000000
s 0
usemtl star
f 29/29/12 28/28/12 38/38/12 39/39/12
f 26/26/13 25/25/13 35/35/13 36/36/13
f 23/23/14 22/22/14 32/32/14 33/33/14
f 30/30/15 29/29/15 39/39/15 40/40/15
f 27/27/16 26/26/16 36/36/16 37/37/16
f 24/24/17 23/23/17 33/33/17 34/34/17
f 21/21/18 30/30/18 40/40/18 31/31/18
f 28/28/19 27/27/19 37/37/19 38/38/19
f 25/25/20 24/24/20 34/34/20 35/35/20
f 22/22/21 21/21/21 31/31/21 32/32/21
f 22/22/22 23/23/22 24/24/22 25/25/22 26/26/22 27/27/22 28/28/22 29/29/22 30/30/22 21/21/22
