# Blender 3.1.0
# www.blender.org
mtllib untitled.mtl
o velvetrope-full
v 4.662998 0.004038 -2.498555
v 4.662998 0.058368 -2.498555
v 4.761280 0.004038 -2.735830
v 4.761280 0.058368 -2.735830
v 4.998555 0.004038 -2.834112
v 4.998555 0.058368 -2.834112
v 5.235829 0.004038 -2.735830
v 5.235829 0.058368 -2.735830
v 5.334112 0.004038 -2.498555
v 5.334112 0.058368 -2.498555
v 5.235829 0.004038 -2.261280
v 5.235829 0.058368 -2.261280
v 4.998555 0.004038 -2.162998
v 4.998555 0.058368 -2.162998
v 4.761280 0.004038 -2.261280
v 4.761280 0.058368 -2.261280
v 4.961453 0.126542 -2.535657
v 4.946085 0.126542 -2.498555
v 4.998555 0.126542 -2.551025
v 5.035657 0.126542 -2.535657
v 5.051024 0.126542 -2.498555
v 5.035657 0.126542 -2.461453
v 4.998555 0.126542 -2.446085
v 4.961453 0.126542 -2.461453
v 4.961453 1.396800 -2.535657
v 4.946085 1.396800 -2.498555
v 4.998555 1.396800 -2.551025
v 5.035657 1.396800 -2.535657
v 5.051024 1.396800 -2.498555
v 5.035657 1.396800 -2.461453
v 4.998555 1.396800 -2.446085
v 4.961453 1.396800 -2.461453
v 4.961453 1.147665 -2.535657
v 4.961453 1.147665 -2.535657
v 4.998555 1.147665 -2.551025
v 4.998555 1.147665 -2.551025
v 4.998555 1.147665 -2.446085
v 4.998555 1.147665 -2.446085
v 4.961453 1.147665 -2.461453
v 4.961453 1.147665 -2.461453
v 5.051024 1.147665 -2.498555
v 5.051024 1.147665 -2.498555
v 5.035657 1.147665 -2.461453
v 5.035657 1.147665 -2.461453
v 5.035657 1.147665 -2.535657
v 5.035657 1.147665 -2.535657
v 4.946085 1.147665 -2.498555
v 4.946085 1.147665 -2.498555
v 4.942377 1.183838 -2.554733
v 4.942377 1.360627 -2.554733
v 4.998555 1.183838 -2.419107
v 4.998555 1.360627 -2.419107
v 5.078003 1.183838 -2.498555
v 5.078003 1.360627 -2.498555
v 4.919106 1.183838 -2.498555
v 4.919106 1.360627 -2.498555
v 4.998555 1.360627 -2.578003
v 4.998555 1.183838 -2.578003
v 4.942377 1.360627 -2.442377
v 4.942377 1.183838 -2.442377
v 5.054733 1.360627 -2.442377
v 5.054733 1.183838 -2.442377
v 5.054733 1.360627 -2.554733
v 5.054733 1.183838 -2.554733
v -0.337002 0.004038 -2.498555
v -0.337002 0.058368 -2.498555
v -0.238720 0.004038 -2.735830
v -0.238720 0.058368 -2.735830
v -0.001445 0.004038 -2.834112
v -0.001445 0.058368 -2.834112
v 0.235830 0.004038 -2.735830
v 0.235830 0.058368 -2.735830
v 0.334112 0.004038 -2.498555
v 0.334112 0.058368 -2.498555
v 0.235830 0.004038 -2.261280
v 0.235830 0.058368 -2.261280
v -0.001445 0.004038 -2.162998
v -0.001445 0.058368 -2.162998
v -0.238720 0.004038 -2.261280
v -0.238720 0.058368 -2.261280
v -0.038547 0.126542 -2.535656
v -0.053915 0.126542 -2.498555
v -0.001445 0.126542 -2.551025
v 0.035657 0.126542 -2.535656
v 0.051025 0.126542 -2.498555
v 0.035657 0.126542 -2.461453
v -0.001445 0.126542 -2.446085
v -0.038547 0.126542 -2.461453
v -0.038547 1.396800 -2.535656
v -0.053915 1.396800 -2.498555
v -0.001445 1.396800 -2.551025
v 0.035657 1.396800 -2.535656
v 0.051025 1.396800 -2.498555
v 0.035657 1.396800 -2.461453
v -0.001445 1.396800 -2.446085
v -0.038547 1.396800 -2.461453
v -0.038547 1.147665 -2.535656
v -0.038547 1.147665 -2.535656
v -0.001445 1.147665 -2.551025
v -0.001445 1.147665 -2.551025
v -0.001445 1.147665 -2.446085
v -0.001445 1.147665 -2.446085
v -0.038547 1.147665 -2.461453
v -0.038547 1.147665 -2.461453
v 0.051025 1.147665 -2.498555
v 0.051025 1.147665 -2.498555
v 0.035657 1.147665 -2.461453
v 0.035657 1.147665 -2.461453
v 0.035657 1.147665 -2.535656
v 0.035657 1.147665 -2.535656
v -0.053915 1.147665 -2.498555
v -0.053915 1.147665 -2.498555
v -0.057623 1.183838 -2.554733
v -0.057623 1.360627 -2.554733
v -0.001445 1.183838 -2.419107
v -0.001445 1.360627 -2.419107
v 0.078003 1.183838 -2.498555
v 0.078003 1.360627 -2.498555
v -0.080893 1.183838 -2.498555
v -0.080893 1.360627 -2.498555
v -0.001445 1.360627 -2.578003
v -0.001445 1.183838 -2.578003
v -0.057623 1.360627 -2.442377
v -0.057623 1.183838 -2.442377
v 0.054733 1.360627 -2.442377
v 0.054733 1.183838 -2.442377
v 0.054733 1.360627 -2.554733
v 0.054733 1.183838 -2.554733
v 1.678431 1.093461 -2.498555
v 0.847314 1.163099 -2.498555
v -0.001029 1.308556 -2.498555
v -0.001029 1.308556 -2.498555
v 4.985673 1.308556 -2.498555
v 4.985673 1.308556 -2.498555
v -0.001029 1.283708 -2.532756
v -0.001029 1.283708 -2.532756
v 4.985673 1.283708 -2.532756
v 4.985673 1.283708 -2.532756
v -0.001029 1.243502 -2.519692
v -0.001029 1.243502 -2.519692
v 4.985673 1.243502 -2.519692
v 4.985673 1.243502 -2.519692
v -0.001029 1.243502 -2.477417
v -0.001029 1.243502 -2.477417
v 4.985673 1.243502 -2.477417
v 4.985673 1.243502 -2.477417
v -0.001029 1.283708 -2.464354
v -0.001029 1.283708 -2.464354
v 4.985673 1.283708 -2.464354
v 4.985673 1.283708 -2.464354
v 2.509547 1.074814 -2.498555
v 3.340664 1.093461 -2.498555
v 4.171782 1.163099 -2.498555
v 4.171782 1.138251 -2.532756
v 3.340664 1.068613 -2.532756
v 2.509547 1.049966 -2.532756
v 1.678430 1.068613 -2.532756
v 0.847313 1.138251 -2.532756
v 4.171782 1.098045 -2.519692
v 3.340664 1.028407 -2.519692
v 2.509547 1.009760 -2.519692
v 1.678430 1.028407 -2.519692
v 0.847314 1.098045 -2.519692
v 4.171782 1.098045 -2.477417
v 3.340664 1.028407 -2.477417
v 2.509547 1.009760 -2.477417
v 1.678430 1.028407 -2.477417
v 0.847314 1.098045 -2.477417
v 4.171782 1.138251 -2.464354
v 3.340664 1.068613 -2.464354
v 2.509547 1.049966 -2.464354
v 1.678430 1.068613 -2.464354
v 0.847313 1.138251 -2.464354
vn -0.7764 -0.6303 -0.0000
vn -0.8323 0.5543 -0.0000
vn -0.5885 0.5543 -0.5885
vn -0.5490 -0.6303 -0.5490
vn -0.0000 0.5543 -0.8323
vn -0.0000 -0.6303 -0.7764
vn 0.5885 0.5543 -0.5885
vn 0.5490 -0.6303 -0.5490
vn 0.8323 0.5543 -0.0000
vn 0.7764 -0.6303 -0.0000
vn 0.5885 0.5543 0.5885
vn 0.5490 -0.6303 0.5490
vn -0.0000 0.5543 0.8323
vn -0.0000 -0.6303 0.7764
vn 0.7103 0.7039 -0.0000
vn 0.5023 0.7039 0.5023
vn -0.5885 0.5543 0.5885
vn -0.5490 -0.6303 0.5490
vn -0.0000 0.2941 -0.9558
vn -0.6758 0.2941 -0.6758
vn -0.3739 0.8488 -0.3739
vn -0.0000 0.8488 -0.5287
vn -0.5023 0.7039 0.5023
vn -0.7103 0.7039 -0.0000
vn -0.5023 0.7039 -0.5023
vn -0.0000 0.7039 -0.7103
vn 0.5023 0.7039 -0.5023
vn -0.0000 0.7039 0.7103
vn -0.5287 0.8488 -0.0000
vn -0.3739 0.8488 0.3739
vn -0.0000 0.8488 0.5287
vn 0.3739 0.8488 0.3739
vn 0.5287 0.8488 -0.0000
vn 0.3739 0.8488 -0.3739
vn -0.6758 0.2941 0.6758
vn -0.0000 0.2941 0.9558
vn 0.6758 0.2941 0.6758
vn 0.9558 0.2941 -0.0000
vn 0.6758 0.2941 -0.6758
vn -0.9558 0.2941 -0.0000
vn 0.6648 -0.3406 -0.6648
vn 0.9402 -0.3406 -0.0000
vn 0.6648 -0.3406 0.6648
vn -0.0000 -0.3406 0.9402
vn -0.6648 -0.3406 0.6648
vn -0.9402 -0.3406 -0.0000
vn -0.6648 -0.3406 -0.6648
vn -0.0000 -0.3406 -0.9402
vn 0.6649 -0.3406 -0.6648
vn 0.6758 -0.2941 -0.6758
vn 0.9558 -0.2941 -0.0000
vn 0.6758 -0.2941 0.6758
vn -0.0000 -0.2941 0.9558
vn -0.6758 -0.2941 0.6758
vn -0.9558 -0.2941 -0.0000
vn -0.6758 -0.2941 -0.6758
vn -0.0000 -0.2941 -0.9558
vn -0.0429 -0.8119 0.5823
vn -0.0000 -0.8119 0.5838
vn -0.0000 0.3014 0.9535
vn 0.0153 0.2983 0.9543
vn -0.0153 0.2983 0.9543
vn -0.0536 0.9986 -0.0000
vn -0.0000 1.0000 -0.0000
vn -0.1322 0.9912 -0.0000
vn 0.5291 0.8486 -0.0000
vn 0.5708 0.3008 -0.7640
vn -0.0363 0.2913 -0.9559
vn 0.0429 -0.8119 0.5822
vn 0.0536 0.9986 -0.0000
vn 0.6473 -0.5973 -0.4735
vn 0.1052 -0.8087 -0.5787
vn -0.6453 -0.5995 0.4735
vn -0.1024 -0.8086 0.5793
vn 0.0356 0.2926 0.9556
vn -0.5719 0.2987 0.7640
vn 0.1284 0.9917 -0.0000
vn 0.6473 -0.5973 0.4735
vn 0.1052 -0.8087 0.5787
vn 0.6473 -0.5973 -0.4736
vn 0.5291 0.8485 -0.0001
vn 0.5708 0.3008 0.7640
vn 0.6473 -0.5973 0.4736
vn -0.5318 0.8469 -0.0000
vn -0.0363 0.2914 0.9559
vn -0.5318 0.8469 -0.0001
vn -0.5719 0.2987 -0.7640
vn -0.6453 -0.5995 -0.4735
vn -0.1024 -0.8086 -0.5793
vn -0.0429 -0.8119 -0.5822
vn -0.0000 -0.8119 -0.5838
vn 0.0429 -0.8119 -0.5822
vn 0.0356 0.2926 -0.9556
vn 0.0153 0.2983 -0.9543
vn -0.0000 0.3014 -0.9535
vn -0.0153 0.2983 -0.9543
vt 0.689718 0.988780
vt 0.689718 0.988780
vt 0.689718 0.988780
vt 0.689718 0.988780
vt 0.689718 0.988780
vt 0.689718 0.988780
vt 0.689718 0.988780
vt 0.689718 0.988780
vt 0.689718 0.988780
vt 0.689718 0.988780
vt 0.689718 0.988780
vt 0.689718 0.988780
vt 0.689718 0.988780
vt 0.689718 0.988780
vt 0.689718 0.988780
vt 0.689718 0.988780
vt 0.689718 0.988780
vt 0.689718 0.988780
vt 0.689718 0.988780
vt 0.689718 0.988780
vt 0.689718 0.988780
vt 0.689718 0.988780
vt 0.689718 0.988780
vt 0.689718 0.988780
vt 0.688229 0.928484
vt 0.688229 0.928484
vt 0.688229 0.928484
vt 0.688229 0.928484
vt 0.688229 0.928484
vt 0.688229 0.928484
vt 0.688229 0.928484
vt 0.688229 0.928484
vt 0.688229 0.928484
vt 0.689718 0.988780
vt 0.688229 0.928484
vt 0.689718 0.988780
vt 0.688229 0.928484
vt 0.689718 0.988780
vt 0.688229 0.928484
vt 0.689718 0.988780
vt 0.688229 0.928484
vt 0.689718 0.988780
vt 0.688229 0.928484
vt 0.689718 0.988780
vt 0.688229 0.928484
vt 0.689718 0.988780
vt 0.688229 0.928484
vt 0.689718 0.988780
vt 0.688229 0.928484
vt 0.688229 0.928484
vt 0.688229 0.928484
vt 0.688229 0.928484
vt 0.688229 0.928484
vt 0.688229 0.928484
vt 0.688229 0.928484
vt 0.688229 0.928484
vt 0.688229 0.928484
vt 0.688229 0.928484
vt 0.688229 0.928484
vt 0.688229 0.928484
vt 0.688229 0.928484
vt 0.688229 0.928484
vt 0.688229 0.928484
vt 0.688229 0.928484
vt 0.689718 0.988780
vt 0.689718 0.988780
vt 0.689718 0.988780
vt 0.689718 0.988780
vt 0.689718 0.988780
vt 0.689718 0.988780
vt 0.689718 0.988780
vt 0.689718 0.988780
vt 0.689718 0.988780
vt 0.689718 0.988780
vt 0.689718 0.988780
vt 0.689718 0.988780
vt 0.689718 0.988780
vt 0.689718 0.988780
vt 0.689718 0.988780
vt 0.689718 0.988780
vt 0.689718 0.988780
vt 0.689718 0.988780
vt 0.689718 0.988780
vt 0.689718 0.988780
vt 0.689718 0.988780
vt 0.689718 0.988780
vt 0.689718 0.988780
vt 0.689718 0.988780
vt 0.688229 0.928484
vt 0.688229 0.928484
vt 0.688229 0.928484
vt 0.688229 0.928484
vt 0.688229 0.928484
vt 0.688229 0.928484
vt 0.688229 0.928484
vt 0.688229 0.928484
vt 0.688229 0.928484
vt 0.689718 0.988780
vt 0.688229 0.928484
vt 0.689718 0.988780
vt 0.688229 0.928484
vt 0.689718 0.988780
vt 0.688229 0.928484
vt 0.689718 0.988780
vt 0.688229 0.928484
vt 0.689718 0.988780
vt 0.688229 0.928484
vt 0.689718 0.988780
vt 0.688229 0.928484
vt 0.689718 0.988780
vt 0.688229 0.928484
vt 0.689718 0.988780
vt 0.688229 0.928484
vt 0.688229 0.928484
vt 0.688229 0.928484
vt 0.688229 0.928484
vt 0.688229 0.928484
vt 0.688229 0.928484
vt 0.688229 0.928484
vt 0.688229 0.928484
vt 0.688229 0.928484
vt 0.688229 0.928484
vt 0.688229 0.928484
vt 0.688229 0.928484
vt 0.688229 0.928484
vt 0.688229 0.928484
vt 0.688229 0.928484
vt 0.688229 0.928484
vt 0.441717 0.744382
vt 0.441717 0.744382
vt 0.441717 0.744382
vt 0.750000 0.490000
vt 0.250000 0.490000
vt 0.441717 0.744382
vt 0.441717 0.744382
vt 0.978254 0.324164
vt 0.441717 0.744382
vt 0.478254 0.324164
vt 0.441717 0.744382
vt 0.891068 0.055836
vt 0.391068 0.055836
vt 0.441717 0.744382
vt 0.441717 0.744382
vt 0.608932 0.055836
vt 0.108932 0.055836
vt 0.441717 0.744382
vt 0.441717 0.744382
vt 0.521746 0.324164
vt 0.021746 0.324164
vt 0.441717 0.744382
vt 0.441717 0.744382
vt 0.441717 0.744382
vt 0.441717 0.744382
vt 0.441717 0.744382
vt 0.441717 0.744382
vt 0.441717 0.744382
vt 0.441717 0.744382
vt 0.441717 0.744382
vt 0.441717 0.744382
vt 0.441717 0.744382
vt 0.441717 0.744382
vt 0.441717 0.744382
vt 0.441717 0.744382
vt 0.441717 0.744382
vt 0.441717 0.744382
vt 0.441717 0.744382
vt 0.441717 0.744382
vt 0.441717 0.744382
vt 0.441717 0.744382
vt 0.441717 0.744382
vt 0.441717 0.744382
vt 0.441717 0.744382
vt 0.441717 0.744382
s 1
usemtl palette
f 1/1/1 2/2/2 4/4/3
f 1/1/1 4/4/3 3/3/4
f 3/3/4 4/4/3 6/6/5
f 3/3/4 6/6/5 5/5/6
f 5/5/6 6/6/5 8/8/7
f 5/5/6 8/8/7 7/7/8
f 7/7/8 8/8/7 10/10/9
f 7/7/8 10/10/9 9/9/10
f 9/9/10 10/10/9 12/12/11
f 9/9/10 12/12/11 11/11/12
f 11/11/12 12/12/11 14/14/13
f 11/11/12 14/14/13 13/13/14
f 12/12/11 10/10/9 21/21/15
f 12/12/11 21/21/15 22/22/16
f 13/13/14 14/14/13 16/16/17
f 13/13/14 16/16/17 15/15/18
f 15/15/18 16/16/17 2/2/2
f 15/15/18 2/2/2 1/1/1
f 15/15/18 1/1/1 3/3/4
f 3/3/4 5/5/6 7/7/8
f 7/7/8 9/9/10 11/11/12
f 11/11/12 13/13/14 15/15/18
f 15/15/18 3/3/4 7/7/8
f 7/7/8 11/11/12 15/15/18
f 57/57/19 50/50/20 25/25/21
f 57/57/19 25/25/21 27/27/22
f 2/2/2 16/16/17 24/24/23
f 2/2/2 24/24/23 18/18/24
f 4/4/3 2/2/2 18/18/24
f 4/4/3 18/18/24 17/17/25
f 8/8/7 6/6/5 19/19/26
f 8/8/7 19/19/26 20/20/27
f 14/14/13 12/12/11 22/22/16
f 14/14/13 22/22/16 23/23/28
f 10/10/9 8/8/7 20/20/27
f 10/10/9 20/20/27 21/21/15
f 16/16/17 14/14/13 23/23/28
f 16/16/17 23/23/28 24/24/23
f 6/6/5 4/4/3 17/17/25
f 6/6/5 17/17/25 19/19/26
f 27/27/22 25/25/21 26/26/29
f 26/26/29 32/32/30 31/31/31
f 31/31/31 30/30/32 29/29/33
f 29/29/33 28/28/34 27/27/22
f 27/27/22 26/26/29 31/31/31
f 31/31/31 29/29/33 27/27/22
f 59/59/35 52/52/36 31/31/31
f 59/59/35 31/31/31 32/32/30
f 61/61/37 54/54/38 29/29/33
f 61/61/37 29/29/33 30/30/32
f 63/63/39 57/57/19 27/27/22
f 63/63/39 27/27/22 28/28/34
f 50/50/20 56/56/40 26/26/29
f 50/50/20 26/26/29 25/25/21
f 56/56/40 59/59/35 32/32/30
f 56/56/40 32/32/30 26/26/29
f 52/52/36 61/61/37 30/30/32
f 52/52/36 30/30/32 31/31/31
f 54/54/38 63/63/39 28/28/34
f 54/54/38 28/28/34 29/29/33
f 21/21/15 20/20/27 46/46/41
f 21/21/15 46/46/41 42/42/42
f 23/23/28 22/22/16 44/44/43
f 23/23/28 44/44/43 38/38/44
f 18/18/24 24/24/23 40/40/45
f 18/18/24 40/40/45 48/48/46
f 17/17/25 18/18/24 48/48/46
f 17/17/25 48/48/46 34/34/47
f 20/20/27 19/19/26 36/36/48
f 20/20/27 36/36/48 46/46/41
f 22/22/16 21/21/15 42/42/42
f 22/22/16 42/42/42 44/44/43
f 24/24/23 23/23/28 38/38/44
f 24/24/23 38/38/44 40/40/45
f 19/19/26 17/17/25 34/34/47
f 19/19/26 34/34/47 36/36/48
f 41/41/42 45/45/49 64/64/50
f 41/41/42 64/64/50 53/53/51
f 53/53/51 64/64/50 63/63/39
f 53/53/51 63/63/39 54/54/38
f 37/37/44 43/43/43 62/62/52
f 37/37/44 62/62/52 51/51/53
f 51/51/53 62/62/52 61/61/37
f 51/51/53 61/61/37 52/52/36
f 47/47/46 39/39/45 60/60/54
f 47/47/46 60/60/54 55/55/55
f 55/55/55 60/60/54 59/59/35
f 55/55/55 59/59/35 56/56/40
f 33/33/47 47/47/46 55/55/55
f 33/33/47 55/55/55 49/49/56
f 49/49/56 55/55/55 56/56/40
f 49/49/56 56/56/40 50/50/20
f 45/45/49 35/35/48 58/58/57
f 45/45/49 58/58/57 64/64/50
f 64/64/50 58/58/57 57/57/19
f 64/64/50 57/57/19 63/63/39
f 43/43/43 41/41/42 53/53/51
f 43/43/43 53/53/51 62/62/52
f 62/62/52 53/53/51 54/54/38
f 62/62/52 54/54/38 61/61/37
f 39/39/45 37/37/44 51/51/53
f 39/39/45 51/51/53 60/60/54
f 60/60/54 51/51/53 52/52/36
f 60/60/54 52/52/36 59/59/35
f 35/35/48 33/33/47 49/49/56
f 35/35/48 49/49/56 58/58/57
f 58/58/57 49/49/56 50/50/20
f 58/58/57 50/50/20 57/57/19
f 65/65/1 66/66/2 68/68/3
f 65/65/1 68/68/3 67/67/4
f 67/67/4 68/68/3 70/70/5
f 67/67/4 70/70/5 69/69/6
f 69/69/6 70/70/5 72/72/7
f 69/69/6 72/72/7 71/71/8
f 71/71/8 72/72/7 74/74/9
f 71/71/8 74/74/9 73/73/10
f 73/73/10 74/74/9 76/76/11
f 73/73/10 76/76/11 75/75/12
f 75/75/12 76/76/11 78/78/13
f 75/75/12 78/78/13 77/77/14
f 76/76/11 74/74/9 85/85/15
f 76/76/11 85/85/15 86/86/16
f 77/77/14 78/78/13 80/80/17
f 77/77/14 80/80/17 79/79/18
f 79/79/18 80/80/17 66/66/2
f 79/79/18 66/66/2 65/65/1
f 79/79/18 65/65/1 67/67/4
f 67/67/4 69/69/6 71/71/8
f 71/71/8 73/73/10 75/75/12
f 75/75/12 77/77/14 79/79/18
f 79/79/18 67/67/4 71/71/8
f 71/71/8 75/75/12 79/79/18
f 121/121/19 114/114/20 89/89/21
f 121/121/19 89/89/21 91/91/22
f 66/66/2 80/80/17 88/88/23
f 66/66/2 88/88/23 82/82/24
f 68/68/3 66/66/2 82/82/24
f 68/68/3 82/82/24 81/81/25
f 72/72/7 70/70/5 83/83/26
f 72/72/7 83/83/26 84/84/27
f 78/78/13 76/76/11 86/86/16
f 78/78/13 86/86/16 87/87/28
f 74/74/9 72/72/7 84/84/27
f 74/74/9 84/84/27 85/85/15
f 80/80/17 78/78/13 87/87/28
f 80/80/17 87/87/28 88/88/23
f 70/70/5 68/68/3 81/81/25
f 70/70/5 81/81/25 83/83/26
f 91/91/22 89/89/21 90/90/29
f 90/90/29 96/96/30 95/95/31
f 95/95/31 94/94/32 93/93/33
f 93/93/33 92/92/34 91/91/22
f 91/91/22 90/90/29 95/95/31
f 95/95/31 93/93/33 91/91/22
f 123/123/35 116/116/36 95/95/31
f 123/123/35 95/95/31 96/96/30
f 125/125/37 118/118/38 93/93/33
f 125/125/37 93/93/33 94/94/32
f 127/127/39 121/121/19 91/91/22
f 127/127/39 91/91/22 92/92/34
f 114/114/20 120/120/40 90/90/29
f 114/114/20 90/90/29 89/89/21
f 120/120/40 123/123/35 96/96/30
f 120/120/40 96/96/30 90/90/29
f 116/116/36 125/125/37 94/94/32
f 116/116/36 94/94/32 95/95/31
f 118/118/38 127/127/39 92/92/34
f 118/118/38 92/92/34 93/93/33
f 85/85/15 84/84/27 110/110/41
f 85/85/15 110/110/41 106/106/42
f 87/87/28 86/86/16 108/108/43
f 87/87/28 108/108/43 102/102/44
f 82/82/24 88/88/23 104/104/45
f 82/82/24 104/104/45 112/112/46
f 81/81/25 82/82/24 112/112/46
f 81/81/25 112/112/46 98/98/47
f 84/84/27 83/83/26 100/100/48
f 84/84/27 100/100/48 110/110/41
f 86/86/16 85/85/15 106/106/42
f 86/86/16 106/106/42 108/108/43
f 88/88/23 87/87/28 102/102/44
f 88/88/23 102/102/44 104/104/45
f 83/83/26 81/81/25 98/98/47
f 83/83/26 98/98/47 100/100/48
f 105/105/42 109/109/41 128/128/50
f 105/105/42 128/128/50 117/117/51
f 117/117/51 128/128/50 127/127/39
f 117/117/51 127/127/39 118/118/38
f 101/101/44 107/107/43 126/126/52
f 101/101/44 126/126/52 115/115/53
f 115/115/53 126/126/52 125/125/37
f 115/115/53 125/125/37 116/116/36
f 111/111/46 103/103/45 124/124/54
f 111/111/46 124/124/54 119/119/55
f 119/119/55 124/124/54 123/123/35
f 119/119/55 123/123/35 120/120/40
f 97/97/47 111/111/46 119/119/55
f 97/97/47 119/119/55 113/113/56
f 113/113/56 119/119/55 120/120/40
f 113/113/56 120/120/40 114/114/20
f 109/109/41 99/99/48 122/122/57
f 109/109/41 122/122/57 128/128/50
f 128/128/50 122/122/57 121/121/19
f 128/128/50 121/121/19 127/127/39
f 107/107/43 105/105/42 117/117/51
f 107/107/43 117/117/51 126/126/52
f 126/126/52 117/117/51 118/118/38
f 126/126/52 118/118/38 125/125/37
f 103/103/45 101/101/44 115/115/53
f 103/103/45 115/115/53 124/124/54
f 124/124/54 115/115/53 116/116/36
f 124/124/54 116/116/36 123/123/35
f 99/99/48 97/97/47 113/113/56
f 99/99/48 113/113/56 122/122/57
f 122/122/57 113/113/56 114/114/20
f 122/122/57 114/114/20 121/121/19
f 167/167/58 166/166/59 171/171/60
f 167/167/58 171/171/60 172/172/61
f 171/171/60 170/170/62 152/152/63
f 171/171/60 152/152/63 151/151/64
f 153/153/65 134/134/66 137/137/67
f 153/153/65 137/137/67 154/154/68
f 166/166/59 165/165/69 170/170/62
f 166/166/59 170/170/62 171/171/60
f 172/172/61 171/171/60 151/151/64
f 172/172/61 151/151/64 129/129/70
f 154/154/68 137/137/67 142/142/71
f 154/154/68 142/142/71 159/159/72
f 143/143/73 168/168/74 173/173/75
f 143/143/73 173/173/75 147/147/76
f 173/173/75 172/172/61 129/129/70
f 173/173/75 129/129/70 130/130/77
f 159/159/72 142/142/71 146/146/78
f 159/159/72 146/146/78 164/164/79
f 141/141/80 138/138/67 133/133/81
f 133/133/81 149/149/82 145/145/83
f 133/133/81 145/145/83 141/141/80
f 147/147/76 173/173/75 130/130/77
f 147/147/76 130/130/77 131/131/84
f 164/164/79 146/146/78 150/150/82
f 164/164/79 150/150/82 169/169/85
f 168/168/74 167/167/58 172/172/61
f 168/168/74 172/172/61 173/173/75
f 170/170/62 169/169/85 153/153/65
f 170/170/62 153/153/65 152/152/63
f 169/169/85 150/150/82 134/134/66
f 169/169/85 134/134/66 153/153/65
f 148/148/76 132/132/86 136/136/87
f 136/136/87 140/140/88 144/144/73
f 136/136/87 144/144/73 148/148/76
f 165/165/69 164/164/79 169/169/85
f 165/165/69 169/169/85 170/170/62
f 139/139/88 163/163/89 168/168/74
f 139/139/88 168/168/74 143/143/73
f 163/163/89 162/162/90 167/167/58
f 163/163/89 167/167/58 168/168/74
f 162/162/90 161/161/91 166/166/59
f 162/162/90 166/166/59 167/167/58
f 161/161/91 160/160/92 165/165/69
f 161/161/91 165/165/69 166/166/59
f 160/160/92 159/159/72 164/164/79
f 160/160/92 164/164/79 165/165/69
f 135/135/87 158/158/93 163/163/89
f 135/135/87 163/163/89 139/139/88
f 158/158/93 157/157/94 162/162/90
f 158/158/93 162/162/90 163/163/89
f 157/157/94 156/156/95 161/161/91
f 157/157/94 161/161/91 162/162/90
f 156/156/95 155/155/96 160/160/92
f 156/156/95 160/160/92 161/161/91
f 155/155/96 154/154/68 159/159/72
f 155/155/96 159/159/72 160/160/92
f 131/131/84 130/130/77 158/158/93
f 131/131/84 158/158/93 135/135/87
f 130/130/77 129/129/70 157/157/94
f 130/130/77 157/157/94 158/158/93
f 129/129/70 151/151/64 156/156/95
f 129/129/70 156/156/95 157/157/94
f 151/151/64 152/152/63 155/155/96
f 151/151/64 155/155/96 156/156/95
f 152/152/63 153/153/65 154/154/68
f 152/152/63 154/154/68 155/155/96
